<?xml version="1.0" encoding="UTF-8"?>
<svg id="Layer_1" data-name="Layer 1" xmlns="http://www.w3.org/2000/svg" viewBox="0 0 4000 4000">
  <defs>
    <style>
      .cls-1 {
        fill: #fe6dcb;
      }

      .cls-2 {
        fill: #fff;
      }

      .cls-3 {
        fill: #f6ffd4;
        stroke: #000;
        stroke-miterlimit: 10;
        stroke-width: .25px;
      }

      .cls-4 {
        fill: #dbe3ee;
      }

      .cls-5 {
        opacity: .5;
      }

      .cls-6 {
        fill: #75ff00;
      }

      .cls-7 {
        fill: #262f6a;
      }

      .cls-8 {
        fill: #fcbba0;
      }

      .cls-9 {
        fill: #ed197c;
      }

      .cls-10 {
        opacity: .3;
      }

      .cls-11 {
        letter-spacing: -.17em;
      }

      .cls-11, .cls-12 {
        font-family: MyriadPro-Regular, 'Myriad Pro';
        font-size: 46.9px;
      }

      .cls-13 {
        fill: #390075;
      }

      .cls-14 {
        opacity: .55;
      }

      .cls-15 {
        fill: none;
      }

      .cls-16 {
        fill: #ffbf93;
      }

      .cls-12 {
        letter-spacing: -.17em;
      }

      .cls-17 {
        fill: #4089ff;
      }

      .cls-18 {
        fill: #f748e1;
      }

      .cls-19 {
        opacity: .25;
      }
    </style>
  </defs>
  <g>
    <rect class="cls-15" width="4000" height="4000"/>
    <g>
      <path class="cls-6" d="M3489.94,2226.13c0-810.68-657.19-1467.86-1467.86-1467.86S554.21,1415.45,554.21,2226.13c0,409.99,168.15,780.64,439.17,1046.96H3050.77c271.01-266.32,439.17-636.97,439.17-1046.96Z"/>
      <g>
        <g>
          <g>
            <path class="cls-18" d="M2405.46,2607.28l-1.88,30.33v.1l-29.75,475.87-5.59,1.98-80.14,28.06h-94.27c-58.3-12.78-121.17-52.8-182.03-119.34-.77-.87-1.59-1.74-2.41-2.65-4.58-4.92-7.67-7.67-7.67-7.67l-152.23-17.74c-8.68-1.01-17.46,.63-25.22,4.63l-137.57,71.75v78.84l26.76,81.92,12.63,38.62h-579.45c-55.16-15.82-94.17-48.17-119.78-94.22-27.48-49.47-34.09-107.67-22.08-162.98,13.02-60.08,36.21-125.13,61.62-185.74l.05,.05c11.09-9.88,47.5-82.94,125.76-102.85,32.84-8.39,75.07,7.47,122.71,17.36,19.05,3.95,37.18,5.93,54.34,6.03,96.97,.53,162.64-59.89,183.33-171.47,93.5,111.77,175.42,25.46,198.08-25.46,2.27-5.06,3.95-9.79,4.97-13.94,1.35-5.35,1.64-9.69,.77-12.63l3.62,.77,143.64,31.73c24.74,8.92,48.56,20.35,70.64,34.62,41.85,27.2,79.47,60.56,111.48,99.14l4.77,5.74,136.99,164.96,167.03-240.23,10.85-15.58Z"/>
            <path class="cls-13" d="M1729.3,3274.29l-583.29-.09c-53.81-15.42-94.57-47.5-121.16-95.32-26.92-48.46-34.85-106.91-22.32-164.6,11.56-53.35,32.34-115.98,61.75-186.15l1.34-3.18,.82,.83c2-2.3,4.72-6.1,7.97-10.63,17.47-24.35,53.82-75.02,117.24-91.16,25.2-6.43,54.85,.86,89.2,9.3,11.16,2.74,22.69,5.58,34.56,8.04,18.65,3.87,36.77,5.88,53.88,5.98,.41,0,.84,0,1.25,0,95.69,0,159.51-60.17,179.79-169.58l.9-4.84,3.16,3.77c33.49,40.03,68.13,57.87,102.94,52.99,41.45-5.8,76.35-44.45,91.25-77.91,2.23-4.99,3.85-9.54,4.83-13.54,1.59-6.31,1.31-9.69,.8-11.43l-1.1-3.74,7.43,1.59,143.66,31.73c26.08,9.39,50.01,21.11,71.4,34.94,42.26,27.46,79.94,60.97,112.01,99.61l139.82,168.35,180.87-260.09-2.39,38.59-29.85,477.5-7.04,2.49-80.91,28.2h-94.27c-60.61-13.24-123.97-54.75-183.74-120.1l-2.43-2.67c-3.34-3.58-5.89-6.01-6.95-6.99l-151.48-17.66c-8.2-.98-16.46,.56-23.89,4.38l-136.31,71.09v77.06l40.27,123.24Zm-582.32-4.64h575.92l-38.52-118.23v-80.24l138.82-72.4c8.26-4.26,17.45-5.93,26.56-4.88l152.95,17.83,.55,.48c.13,.12,3.22,2.88,7.82,7.82l2.44,2.69c59.1,64.62,121.62,105.65,180.79,118.62l93.38-.05,83.91-29.4,31.03-496.51-174.89,251.51-143.71-173.03c-31.77-38.28-69.1-71.48-110.96-98.68-21.09-13.63-44.7-25.2-70.17-34.38l-143.68-31.72c.13,2.83-.31,6.25-1.31,10.23-1.04,4.26-2.75,9.08-5.1,14.32-15.39,34.58-51.64,74.57-94.84,80.61-35.39,4.95-70.38-12.17-104-50.92-21.69,108.83-86.66,168.61-183.43,168.61h-1.28c-17.42-.1-35.85-2.14-54.8-6.08-11.95-2.48-23.53-5.33-34.72-8.08-33.74-8.3-62.89-15.47-86.95-9.31-61.79,15.72-97.47,65.47-114.62,89.37-4.33,6.04-7.5,10.46-9.89,12.71-29.17,69.65-49.77,131.79-61.24,184.72-12.29,56.59-4.53,113.89,21.85,161.36,25.92,46.62,65.64,77.91,118.08,93.03Z"/>
          </g>
          <rect class="cls-13" x="2167.86" y="2891.98" width="76.05" height="4.64" transform="translate(-1429.68 3054.2) rotate(-55.21)"/>
        </g>
        <g class="cls-19">
          <path class="cls-13" d="M1726.11,3271.98h-579.45c-55.16-15.82-94.17-48.17-119.78-94.22-27.48-49.47-34.09-107.67-22.08-162.98,13.02-60.08,36.21-125.13,61.62-185.74l.05,.05c11.09-9.88,49.95-64.85,128.21-84.77-47.16,118.28-79.8,229.52-86.6,328.28,11.91,95.09,283.58,136.12,567.15,72.81l7.67,53.67,30.57,34.28,12.63,38.62Z"/>
        </g>
        <path class="cls-13" d="M3425.15,3277.49c-56.42,8.56-112.83,10.61-169.25,11.66-56.42,1.18-112.83,.55-169.25-.09-56.42-.5-112.83-.63-169.25-.55H1055.64l-84.63,.03-42.31,.4-42.31,.69c-56.42,.2-112.83-.3-169.25-12.14-3.04-.64-5-3.63-4.36-6.67,.47-2.25,2.24-3.91,4.36-4.36,56.42-11.84,112.83-12.33,169.25-12.14l42.31,.69,42.31,.4,84.63,.03h1861.76c56.42,.08,112.83-.05,169.25-.55,56.42-.64,112.83-1.27,169.25-.09,56.42,1.05,112.83,3.1,169.25,11.66,3.04,.46,5.14,3.31,4.68,6.35-.37,2.47-2.33,4.32-4.68,4.68Z"/>
        <g>
          <g>
            <path class="cls-16" d="M2456.61,2384.11s-21.72,40.53-4.03,84.44c17.69,43.91,116.01,0,116.01,0"/>
            <path class="cls-13" d="M2490.64,2490.4c-8.22,0-15.95-1.08-22.55-3.75-8.49-3.43-14.43-9.23-17.65-17.24-17.89-44.4,3.23-84.7,4.14-86.4l4.09,2.19c-.21,.4-20.98,40.14-3.92,82.48,2.74,6.79,7.81,11.73,15.09,14.67,32.26,13.03,97.17-15.63,97.82-15.92l1.89,4.23c-2.2,.99-44.67,19.73-78.89,19.74Z"/>
          </g>
          <path class="cls-17" d="M2695.1,2473.74l-83.43,4.25c-46.11,2.35-85.4-33.12-87.75-79.24l-9.82-192.65c-.45-8.87,6.37-16.42,15.23-16.87l218.31-11.13c8.87-.45,16.42,6.37,16.87,15.23l9.82,192.65c2.35,46.11-33.12,85.4-79.24,87.75Z"/>
          <g class="cls-19">
            <path class="cls-13" d="M2758.27,2439.66c-14.36,19.56-37.05,32.74-63.15,34.07l-83.46,4.25c-46.09,2.35-85.41-33.11-87.76-79.25l-9.82-192.63c-.45-8.86,6.41-16.4,15.27-16.86l41.08-2.09,9.09,178.23c2.35,46.13,41.63,81.6,87.76,79.25l83.41-4.25c2.55-.13,5.1-.36,7.59-.73Z"/>
          </g>
          <g class="cls-14">
            <path class="cls-2" d="M2764.5,2193.35l9.82,192.63c2.35,46.13-33.11,85.41-79.2,87.76l-35.3,1.8c46.13-2.35,81.6-41.63,79.25-87.76l-9.82-192.63c-.45-8.86-7.99-15.67-16.85-15.22l35.25-1.8c8.86-.45,16.4,6.36,16.85,15.22Z"/>
          </g>
          <path class="cls-13" d="M2607.36,2494.98c-53.08,0-97.56-41.76-100.29-95.37l-9.82-192.65c-.92-18.14,13.08-33.66,31.23-34.58l218.31-11.13c18.14-.9,33.66,13.1,34.58,31.23l9.82,192.65c1.37,26.81-7.79,52.53-25.77,72.46-17.99,19.92-42.66,31.64-69.46,33.01l-83.43,4.25c-1.73,.09-3.46,.13-5.17,.13Zm-76.36-288.93l9.78,191.85c1.87,36.75,33.33,65.15,70.03,63.24l83.43-4.25h0c17.8-.91,34.18-8.69,46.13-21.92,11.94-13.23,18.02-30.32,17.11-48.12l-9.78-191.85-216.7,11.04Z"/>
          <g>
            <path class="cls-16" d="M2530.16,2359.48c-7.38,.72-18,5.41-18,5.41v32.55l-50.96-13.32c29.46-118.81,140.27-157.29,68.95-24.64Z"/>
            <path class="cls-13" d="M2514.48,2400.44l-56.07-14.66,.55-2.22c15.98-64.42,55.49-104.92,77.88-109.39,8.55-1.69,13.15,1.71,15.5,4.88,8.86,11.96,1.71,40.92-20.13,81.53l-.58,1.09-1.23,.12c-5.41,.53-12.86,3.39-15.91,4.64v34.01Zm-50.46-17.98l45.82,11.98v-31.05l1.38-.61c.42-.19,9.94-4.37,17.46-5.44,29.47-55.19,22.71-71.75,19.92-75.52-2.25-3.04-5.9-4.06-10.86-3.09-20.92,4.18-57.88,42.49-73.72,103.75Z"/>
          </g>
          <path class="cls-13" d="M2461.22,2398.58c-1.15,0-2.33-.14-3.5-.43-7.75-1.92-12.48-9.77-10.56-17.52,16.33-65.84,58.13-112.73,87.5-118.42,11.41-2.19,21.49,1.38,27.61,9.84,12.52,17.31,4.73,51.37-23.15,101.21-3.9,6.98-12.71,9.47-19.69,5.57-6.97-3.9-9.46-12.71-5.56-19.69,24.87-44.45,25.8-62.91,25.2-68.42-12.72,3.01-48.72,35.95-63.84,96.88-1.63,6.59-7.54,10.99-14.03,10.99Z"/>
          <path class="cls-13" d="M2517.17,2437.93l-50.22-21.1c-24.01-10.07-40.39-33.4-41.71-59.41l-2.8-54.9c-.93-18.22,5.29-35.7,17.51-49.22,12.21-13.51,28.96-21.46,47.16-22.39l28.17-1.44,2.46,48.15-28.17,1.44c-5.34,.27-10.25,2.61-13.84,6.57-3.58,3.96-5.41,9.09-5.13,14.43l2.8,54.9c.39,7.62,5.19,14.45,12.22,17.41l50.23,21.1-18.68,44.45Z"/>
          <path class="cls-13" d="M2490.52,2504.87c-9.98,0-19.56-1.34-27.89-4.71-12.12-4.9-21.01-13.64-25.71-25.29-20.41-50.65,3.77-96.78,4.81-98.72,4.4-8.21,14.63-11.31,22.85-6.9,8.19,4.39,11.29,14.57,6.94,22.77-.3,.59-17.62,34.66-3.29,70.23,.9,2.23,2.43,4.76,7.04,6.62,20.34,8.2,67.01-7.04,86.43-15.72,8.51-3.79,18.49,0,22.29,8.53,3.8,8.51-.02,18.49-8.53,22.29-5.85,2.61-48.14,20.9-84.94,20.9Z"/>
        </g>
        <g>
          <path class="cls-8" d="M1756.44,2454.62v80.57c-21.94,53.19-47.01,85.73-75.27,97.5-8.73,3.62-17.74,5.26-27.05,4.92-28.64-1.06-60.13-20.83-94.46-59.5l-6.8-192.3c24.35,24.79,49.47,44.41,75.56,57.57,28.88,14.71,58.92,21.51,90.46,18.81,12.3-1.06,24.83-3.57,37.56-7.57Z"/>
          <path class="cls-13" d="M1656.45,2639.97c-.81,0-1.61-.01-2.42-.04-29.23-1.08-61.56-21.37-96.11-60.28l-.55-.62-7.04-199.09,4.18,4.25c24.96,25.41,50.18,44.63,74.95,57.13,29.23,14.89,59.24,21.14,89.22,18.56,12.17-1.05,24.64-3.56,37.06-7.47l3.02-.95-.18,84.61c-22.11,53.59-47.85,86.82-76.52,98.75-8.24,3.42-16.84,5.14-25.6,5.14Zm-94.51-62.78c33.46,37.52,64.5,57.08,92.26,58.11,8.91,.28,17.7-1.27,26.08-4.75,27.42-11.41,52.26-43.65,73.84-95.82v-76.98c-11.75,3.48-23.52,5.75-35.04,6.74-30.86,2.65-61.71-3.77-91.71-19.05-23.83-12.03-48.03-30.12-71.98-53.82l6.56,185.56Z"/>
        </g>
        <g class="cls-14">
          <path class="cls-2" d="M1320.47,2843.56h0c-23.5,12.61-41.77,33.13-51.57,57.92l-41.16,104.11-20.24-.61h0c21.17,24.1,49.44,40.88,80.75,47.91l5.48,1.23,392.99,44.6v-26.13l-386.74-57.81-15.65-8.73,36.14-162.49Z"/>
        </g>
        <path class="cls-13" d="M1552.61,2595c-9.32,0-16.88-7.53-16.88-16.85v-.05c0-1.04,.1-2.08,.29-3.1,9.87-52.87,8.94-116.45-2.75-189.02l-1.8-3.11c-4.65-8.08-1.86-18.4,6.22-23.04,8.08-4.65,18.4-1.86,23.04,6.23l3.33,5.74c1.01,1.75,1.69,3.67,2.02,5.66,12.78,77.58,13.85,146.02,3.18,203.43-1.33,8-8.28,14.11-16.65,14.11Z"/>
        <path class="cls-13" d="M1194.97,3001.08c21.13-2.95,41.99-3.56,62.75-3.39,20.77,.15,41.4,1.44,61.96,3.35,41.11,3.88,82.25,7.53,123.29,12.02,20.54,2.09,41.06,4.32,61.56,6.77,20.51,2.34,41.01,4.72,61.48,7.4,40.97,5.1,81.88,10.74,122.66,17.37l.75,.12c8.28,1.35,14.16,8.52,14.15,16.64v11.24c0,9.32-7.56,16.88-16.88,16.88s-16.88-7.56-16.88-16.88v-11.24l14.9,16.76c-41.21-3.01-82.31-7.02-123.35-11.57-20.53-2.15-41.03-4.59-61.52-7.08-20.51-2.37-40.98-4.97-61.45-7.7-40.96-5.15-81.83-11.15-122.72-16.92-20.44-2.91-40.81-6.45-61.05-11.12-20.24-4.66-40.38-10.09-60.25-17.86-1.28-.5-1.91-1.95-1.41-3.23,.34-.87,1.12-1.44,1.98-1.56Z"/>
        <path class="cls-13" d="M1326.53,2830.63c-4.8,30.24-10.17,60.33-15.55,90.42l-8.41,45.03c-2.95,14.97-4.94,30.21-10.54,44.45-3.43,8.72-13.29,13.01-22.01,9.58-7.57-2.98-11.8-10.81-10.53-18.53,2.47-15.1,8.55-29.21,13.68-43.58l15.81-42.99c10.78-28.6,21.55-57.2,32.91-85.64,.5-1.25,1.91-1.85,3.15-1.35,1.07,.43,1.67,1.54,1.5,2.63Z"/>
        <g>
          <path class="cls-16" d="M2029.89,3145.4h-343.17v-72.81l137.57-71.75c7.76-4,16.54-5.64,25.22-4.63l152.23,17.74s3.09,2.75,7.67,7.67c.82,.92,1.64,1.78,2.41,2.65,18.66,21.07,53.57,71.27,18.08,121.13Z"/>
          <path class="cls-13" d="M2031.08,3147.72h-346.69v-76.54l138.82-72.4c8.26-4.26,17.45-5.93,26.56-4.88l152.95,17.83,.55,.49c.13,.11,3.22,2.88,7.82,7.81l2.44,2.69c17.76,20.05,55.08,72.27,18.24,124.01l-.69,.98Zm-342.05-4.64h339.65c33.75-48.72-1.71-98.18-18.62-117.27l-2.4-2.65c-3.34-3.58-5.89-6.01-6.95-6.99l-151.48-17.66c-8.2-.98-16.46,.56-23.89,4.38l-136.31,71.09v69.09Z"/>
        </g>
        <g class="cls-14">
          <path class="cls-2" d="M2044.16,3111.75c-6.7-21.17-19.91-38.67-29.12-49.13-.77-.87-1.59-1.74-2.41-2.65-4.58-4.92-7.67-7.67-7.67-7.67l-152.23-17.74c-8.68-1.01-17.46,.63-25.22,4.63l-137.57,71.75v34.48h-3.23v-72.81l137.57-71.75c7.76-4,16.54-5.64,25.22-4.63l152.23,17.74s3.09,2.75,7.67,7.67c.82,.92,1.64,1.78,2.41,2.65,14.42,16.3,38.58,49.95,32.36,87.47Z"/>
        </g>
        <g class="cls-14">
          <path class="cls-2" d="M2403.58,2637.61v.1l-23.19,71.12-122.28,185.5-3.95,4.04c-16.44,16.8-40.6,23.54-63.36,17.66h0l15.09-31.87-129.07-145.59c-26.84-30.28-56.81-57.63-89.41-81.6h0c-56.92-41.85-121.09-72.83-189.27-91.36l-47.44-12.9-.1-.05s1.98-5.55,5.06-13.89c1.25-3.52,2.75-7.57,4.39-11.86l143.64,31.73c24.74,8.92,48.56,20.35,70.64,34.62,41.85,27.2,79.47,60.56,111.48,99.14l4.77,5.74,136.99,164.96,167.03-240.23,8.97,14.75Z"/>
        </g>
        <g class="cls-14">
          <path class="cls-2" d="M1937.56,2738.43h0c0,26.06,3.16,52.03,9.41,77.33l10,40.45c6.25,25.3,9.41,51.27,9.41,77.33v80.4s49.4,1.88,53.84,0c23.92-10.14-26.52-217.79-82.67-275.51Z"/>
        </g>
        <path class="cls-13" d="M2029.89,3162.28h-343.18c-9.32,0-16.88-7.55-16.88-16.88v-72.81c0-6.29,3.5-12.06,9.07-14.97l137.57-71.75c10.9-5.62,22.99-7.83,34.99-6.43l152.22,17.74c3.44,.4,6.68,1.86,9.27,4.16,.38,.34,3.82,3.43,8.79,8.76l2.65,2.91c20.11,22.71,62.13,81.9,19.24,142.15-3.17,4.45-8.29,7.09-13.75,7.09Zm-326.3-33.75h317.01c20.18-36.79-4.26-73.68-21.43-93.07l-2.38-2.61c-.97-1.04-1.88-1.98-2.68-2.79l-146.57-17.08c-5.33-.62-10.69,.37-15.53,2.87l-128.43,66.98v45.7Z"/>
        <path class="cls-13" d="M1930.54,2724.79c9.98,9.17,19.35,18.95,28.09,29.34,4.41,5.16,8.63,10.5,12.78,15.92,3.97,5.53,8.06,11.02,11.84,16.75,7.5,11.46,14.42,23.45,20.59,35.89,5.96,12.55,11.28,25.52,15.42,38.99,4.11,13.45,7.7,27.22,9.46,41.36,.6,3.51,1.01,7.04,1.31,10.6,.31,3.55,.77,7.09,.94,10.65,.18,7.06,.42,14.43,.38,20.85-.05,26.53-.46,53.05-2.28,79.58-.64,9.32-8.71,16.36-18.03,15.72-8.54-.58-15.16-7.41-15.72-15.72-1.82-26.56-2.23-53.12-2.28-79.68,.09-6.85-.13-12.75-.22-18.96-.42-6.13-.44-12.29-1.27-18.4l-1.06-9.19c-.49-3.05-1.06-6.09-1.48-9.16-.94-6.12-2.24-12.21-3.6-18.3-2.85-12.16-6.65-24.16-10.62-36.21-4.38-11.91-8.65-24.02-14.04-35.77-10.05-23.88-22.31-47.14-34.06-71.36-.6-1.21-.1-2.68,1.11-3.29,.93-.46,2.02-.26,2.75,.39Z"/>
        <g>
          <path class="cls-13" d="M1726.11,3288.85h-579.45c-1.57,0-3.14-.22-4.65-.65-57.65-16.53-101.35-50.92-129.88-102.24-28.64-51.55-37.1-113.62-23.83-174.76,11.75-54.22,32.79-117.71,62.55-188.69,1.04-2.49,2.65-4.65,4.65-6.35,1.09-1.45,3.97-6.08,6.32-9.85,24.72-39.69,90.26-144.95,257.95-78.96,17.2,3.49,33.88,5.3,49.6,5.39h1.19c89.13,0,146.32-54.49,165.45-157.67,1.2-6.46,6.04-11.65,12.41-13.27,6.36-1.64,13.1,.59,17.26,5.68,38.02,46.57,75.09,62.67,110.17,47.81,40.74-17.25,65.81-70.1,63.81-87.2-.63-5.42,1.39-10.82,5.44-14.48,4.05-3.66,9.62-5.15,14.96-3.96l147.26,32.5c.71,.16,1.41,.36,2.09,.61,26.84,9.68,51.76,21.9,74.08,36.32,43.52,28.28,82.3,62.77,115.31,102.54l127.59,153.62,165.21-237.59c4.32-6.22,12.24-8.8,19.4-6.3,7.15,2.49,11.77,9.43,11.29,16.99l-31.63,506.3c-.42,6.77-4.86,12.63-11.26,14.87l-85.73,30.04c-1.79,.63-3.68,.95-5.58,.95h-94.27c-1.22,0-2.43-.13-3.62-.39-63.06-13.83-129.06-56.86-190.86-124.44l-2.56-2.82c-.97-1.04-1.88-1.98-2.68-2.79l-146.57-17.08c-5.33-.62-10.69,.37-15.53,2.87l-128.43,66.98v65.92l38.56,117.99c1.68,5.14,.79,10.78-2.38,15.15-3.17,4.38-8.25,6.97-13.66,6.97Zm-577.03-33.75h553.76l-32.17-98.43c-.55-1.69-.83-3.46-.83-5.24v-78.84c0-6.29,3.5-12.06,9.07-14.97l137.57-71.75c10.9-5.62,22.99-7.83,34.99-6.43l152.22,17.74c3.44,.4,6.68,1.86,9.27,4.16,.38,.34,3.82,3.43,8.79,8.76l2.65,2.91c56.35,61.62,115.59,100.95,171.3,113.71h89.53l72.46-25.4,27.17-434.88-143.42,206.24c-3.01,4.33-7.87,7-13.13,7.23-5.21,.23-10.33-2.02-13.7-6.08l-141.76-170.68c-30.84-37.16-67.08-69.38-107.71-95.78-19.85-12.83-42.12-23.77-66.16-32.52l-127.82-28.21c-8.42,34.57-39.11,81.49-82.14,99.72-30.45,12.88-75.78,15.99-127.28-33.34-28.24,98.07-96.56,153.47-191.23,153.47-.44,0-.88,0-1.33,0-18.38-.1-37.79-2.25-57.68-6.38-.96-.2-1.9-.48-2.81-.84-142.52-56.69-193.65,25.42-218.23,64.88-3.88,6.23-6.77,10.87-9.73,14.38-28.3,67.88-48.3,128.36-59.45,179.82-11.54,53.13-4.31,106.83,20.34,151.21,24,43.16,59.16,71.16,107.44,85.54Z"/>
          <path class="cls-13" d="M2241.44,2872.71l-55.28,54.19c-.97,.95-2.52,.93-3.47-.03-.73-.74-.88-1.83-.49-2.72l31.52-70.7c3.86-8.66,14.02-12.56,22.69-8.69,8.67,3.86,12.56,14.02,8.7,22.69-.9,2.01-2.18,3.81-3.66,5.27Z"/>
        </g>
        <g class="cls-14">
          <path class="cls-2" d="M1756.44,2454.62v80.57c-21.94,53.19-47.01,85.73-75.27,97.5,39.15-36.31,37.71-88.1,37.71-88.1v-82.41c12.3-1.06,24.83-3.57,37.56-7.57Z"/>
          <path class="cls-13" d="M1670.07,2639.82l9.52-8.83c37.89-35.14,36.98-85.83,36.97-86.33v-84.6s2.12-.18,2.12-.18c12.17-1.05,24.64-3.56,37.07-7.47l3.02-.95-.18,84.61c-22.11,53.59-47.85,86.82-76.52,98.75l-11.99,5Zm51.13-175.52v80.29c.01,.42,.84,43.83-28.45,79.21,22.52-15.06,43.11-44.93,61.37-89.08v-76.98c-11.03,3.27-22.08,5.47-32.92,6.55Z"/>
        </g>
        <path class="cls-13" d="M1552.61,2595c-9.32,0-16.88-7.53-16.88-16.85v-.05c0-9.32,7.56-16.88,16.88-16.88s16.88,7.55,16.88,16.88-7.56,16.9-16.88,16.9Z"/>
        <g class="cls-19">
          <path class="cls-13" d="M2368.24,3115.55l-80.14,28.06h-94.27c-58.3-12.78-121.17-52.8-182.03-119.34-.77-.87-1.59-1.74-2.41-2.65l-5.83-146.15c81.88,138.1,169.92,254.74,347.76,59.7,0,0,9.26,97.84,16.92,180.39Z"/>
        </g>
        <path class="cls-13" d="M1756.44,2543c-9.32,0-16.88-7.55-16.88-16.88v-75.9c0-9.32,7.56-16.88,16.88-16.88s16.88,7.55,16.88,16.88v75.9c0,9.32-7.56,16.88-16.88,16.88Z"/>
        <g>
          <path class="cls-2" d="M3390.96,2505.6c-.07,4.28-.61,8.63-1.63,13.05l-145.37,621.99c-2.79,12.51-8.97,23.53-17.47,32.09,0,0-.07,.07-.2,.2-.88,.88-1.77,1.7-2.65,2.52-11.83,10.74-27.54,17.13-44.4,17.13h-834.67c-3.94,0-7.75-.34-11.49-.95-16.86-2.92-31.34-12.17-41.13-25.02-4.62-5.92-8.16-12.65-10.54-19.85-3.54-10.88-4.35-22.85-1.63-35.02l136.39-582.35c6.19-26.38,21.28-48.89,41.68-64.52h.07c2.24-1.77,4.62-3.4,7-4.96,18.02-11.83,39.5-18.56,62.28-18.56h800.88c36.04,0,63.71,29.85,62.89,64.25Z"/>
          <path class="cls-4" d="M3343.37,2504.44c0,1.29-.14,2.38-.41,3.47l-145.37,621.92c-.88,3.88-2.52,7-4.9,9.38l-1.02,.95c-1.43,1.22-2.92,2.31-4.56,3.06-2.45,1.16-5.1,1.77-7.89,1.77h-834.67c-1.22,0-2.45-.14-3.74-.34-4.15-.68-8.23-3.2-11.01-6.87-1.56-2.04-2.52-3.88-3.2-5.98-1.02-2.99-1.16-6.32-.41-9.65l136.32-581.87c3.2-13.94,10.95-26.45,21.83-35.63l2.99-2.38c1.16-.95,2.45-1.77,3.74-2.58,1.84-1.16,3.67-2.31,5.58-3.26,9.31-4.9,19.79-7.48,30.53-7.48h800.88c5.3,0,8.84,2.45,10.88,4.56,1.7,1.77,4.56,5.51,4.42,10.95Z"/>
          <path class="cls-4" d="M3119.81,3192.59l-16.52,25.97c-21.15,33.25-57.79,53.44-97.16,53.44H1789.55c-46.98,0-89.21-28.56-106.75-72.14l-5.44-13.39c-7.61-18.97,6.32-39.71,26.79-39.71h577.25c8.57,26.18,33.11,45.83,63.16,45.83h775.24Z"/>
          <polygon class="cls-13" points="2281.47 3149.08 2281.41 3149.08 2281.41 3144.44 2281.47 3149.08"/>
          <path class="cls-13" d="M3179.24,3209.28h-834.67c-36.05,0-67.81-23.04-79.03-57.33-4.6-14.16-5.31-29.31-2.06-43.84l136.43-582.52c13.88-59.42,66.22-100.94,127.28-100.94h800.88c24.44,0,47.17,10.99,62.37,30.15,15.2,19.17,20.73,43.83,15.15,67.65l-145.37,621.99c-8.32,37.5-42.4,64.84-80.98,64.84Zm-652.04-751.25c-45.47,0-84.44,30.9-94.78,75.15l-136.39,582.36c-1.94,8.67-1.53,17.49,1.26,26.04,6.71,20.5,25.72,34.3,47.29,34.3h834.67c23.06,0,43.43-16.35,48.43-38.87l145.41-622.17h0c3.24-13.84,.03-28.17-8.8-39.31-8.82-11.13-22.02-17.51-36.21-17.51h-800.88Z"/>
          <g class="cls-19">
            <path class="cls-13" d="M2358.44,3192.59l-16.52,25.97c-21.15,33.25-57.79,53.44-97.16,53.44h-455.21c-46.98,0-89.21-28.56-106.75-72.14l-5.44-13.39c-.2-.61-.48-1.16-.61-1.77h636.4c9.25,5.03,19.92,7.89,31.41,7.89h13.87Z"/>
          </g>
          <path class="cls-13" d="M3006.13,3288.7H1789.55c-54.06,0-102.04-32.43-122.23-82.61l-5.42-13.34c-5.68-14.14-3.97-30.06,4.53-42.64,8.49-12.55,22.59-20.04,37.73-20.04h564.13c13.55,0,25.97,7.47,32.4,19.49,8.69,16.25,25.51,26.34,43.88,26.34h775.24c6.09,0,11.7,3.32,14.63,8.66,2.93,5.34,2.72,11.85-.55,16.99l-16.61,26.12c-24.31,38.21-65.86,61.03-111.15,61.03Zm-1301.98-125.24c-5.82,0-8.98,3.75-10.07,5.36-1.1,1.63-3.42,5.99-1.23,11.44l5.42,13.33c15.1,37.52,50.92,61.73,91.28,61.73h1216.58c33.81,0,64.83-17.03,82.98-45.56l.3-.46h-744.84c-30.72,0-58.82-16.85-73.32-43.98-.61-1.14-1.75-1.85-2.97-1.85h-564.13Z"/>
          <path class="cls-13" d="M2244.73,3288.67c-9.22,0-16.69-7.48-16.69-16.69s7.47-16.69,16.69-16.69c33.87,0,64.93-17.07,83.08-45.66l16.52-26.02c4.94-7.78,15.26-10.08,23.04-5.14,7.78,4.94,10.09,15.26,5.14,23.04l-16.52,26.01c-24.31,38.29-65.91,61.15-111.27,61.15Z"/>
          <ellipse class="cls-13" cx="2881.63" cy="2809.97" rx="86.12" ry="59.4" transform="translate(-918.38 4136.48) rotate(-63.52)"/>
          <g class="cls-19">
            <path class="cls-13" d="M3187.12,3143.23c-2.45,1.16-5.1,1.77-7.89,1.77h-834.67c-1.22,0-2.45-.14-3.74-.34-4.15-.68-8.23-3.2-11.01-6.87-1.56-2.04-2.52-3.88-3.2-5.98-1.02-2.99-1.16-6.32-.41-9.65l136.32-581.87c3.2-13.94,10.95-26.45,21.83-35.63l2.99-2.38c1.16-.95,2.45-1.77,3.74-2.58,1.84-1.16,3.67-2.31,5.58-3.26,95.26,108.58,193.64,211.66,295.36,309.09-3.33,14.96-4.08,29.98-2.04,44.06,4.01,28.28,18.97,50.79,41.13,61.8,9.72,4.9,20.33,7.34,31.48,7.34,13.6,0,27.26-3.6,40.18-10.33,92.13,82.75,186.91,161.07,284.34,234.84Z"/>
          </g>
        </g>
        <path class="cls-13" d="M1749.16,2339.04c-4.63,9.46-12.71,17.03-22.98,21.64-10.23,4.59-22.89,5.6-34.31,2.18-11.52-3.25-21.14-10.78-27.51-19.63-6.37-8.93-9.91-19.26-9.47-29.87,.07-1.79,1.59-3.19,3.38-3.11,.67,.03,1.28,.26,1.79,.62l.09,.07c8.16,5.98,14.76,11.21,21.3,15.3,6.5,4.08,12.57,7.11,18.72,8.93,6.15,1.82,12.47,2.71,19.87,2.5,7.44-.13,15.64-1.63,25.59-3.21l.14-.02c1.76-.28,3.41,.92,3.69,2.68,.11,.68,0,1.35-.29,1.92Z"/>
        <g class="cls-19">
          <path class="cls-7" d="M1657.49,2631.97s-1.25,2.27-3.38,5.64c-28.64-1.06-60.13-20.83-94.46-59.5l-6.8-192.3c24.35,24.79,49.47,44.41,75.56,57.57,.19,.87,.19,1.3,.19,1.3v148.13c-.48,20.11,11.52,31.54,28.88,39.15Z"/>
          <path class="cls-13" d="M1655.37,2639.98l-1.34-.05c-29.22-1.08-61.56-21.37-96.11-60.28l-.55-.62-7.04-199.09,4.18,4.25c24.96,25.41,50.18,44.63,74.95,57.13l.98,.5,.24,1.07c.23,1.04,.25,1.65,.25,1.81v148.12c-.41,16.88,8.33,28.62,27.5,37.03l2.32,1.02-1.23,2.23s-1.28,2.31-3.44,5.75l-.71,1.14Zm-93.43-62.79c32.93,36.92,63.51,56.45,90.93,58.05,.52-.84,.97-1.59,1.34-2.22-19.21-9.11-28.35-22.3-27.92-40.26v-147.86c-23.49-12.03-47.32-29.93-70.91-53.27l6.56,185.56Z"/>
        </g>
        <g class="cls-19">
          <polygon class="cls-13" points="1315.1 2863.08 1382.13 3038.03 1276.46 3003.47 1315.1 2863.08"/>
        </g>
        <g class="cls-19">
          <path class="cls-7" d="M1640.9,2637.03s-45.28,123.31-200.2,112.11c55.45-49.91,105.93-101.12,118.95-162.23l81.25,50.12Z"/>
          <path class="cls-13" d="M1460.07,2752.17c-6.32,0-12.81-.23-19.53-.71l-5.43-.4,4.05-3.64c52.55-47.29,104.96-98.69,118.23-160.99l.69-3.22,85.66,52.84-.65,1.78c-.44,1.19-43.69,114.34-183.01,114.34Zm-13.72-5c137.09,7.2,185.43-94.52,191.67-109.19l-76.81-47.38c-14.25,60.58-64.03,110.59-114.86,156.57Z"/>
        </g>
        <g class="cls-19">
          <path class="cls-13" d="M3550.14,3314.19c0,53.39-660.6,96.76-1475.5,96.76s-1475.5-43.37-1475.5-96.76c0-15.14,53.01-29.46,147.49-42.21H3402.7c94.48,12.75,147.44,27.07,147.44,42.21Z"/>
        </g>
        <g>
          <g>
            <path d="M1313.86,2005.64v.05c1.53,1.21,3.01,2.53,4.45,3.84,10.08,9.21,18.16,20.57,23.08,33.6,226.05,49.3,625.48-108.02,611.5-414.46,0,0,129.79,40.2,176.8,340.83,177.79-159.41,73.81-580.4-291.42-528.11,0,0-.05,0-.1,0-7.05,.17-477.72,13.72-524.3,564.24Z"/>
            <path class="cls-13" d="M1429.74,2054.37c-31.11,0-61.04-2.91-88.85-8.97l-1.23-.27-.44-1.18c-4.65-12.33-12.22-23.34-22.48-32.71-1.4-1.28-2.84-2.56-4.32-3.74l-.82-.65-.06-1.21v-.21c24.19-285.81,164.6-424.39,278.13-490.31,124.41-72.25,243.43-75.93,248.43-76.05,155.53-22.29,284.93,42.42,345.89,173.07,59.43,127.37,37.24,278.38-52.77,359.08l-3.18,2.85-.66-4.22c-42.11-269.31-152.01-328.99-172.05-337.73,3.78,107.14-42.8,204.73-134.87,282.41-102.5,86.48-257.43,139.82-390.74,139.82Zm-86.64-13.24c145.65,31.22,349.32-24.6,474.39-130.13,91.95-77.58,137.97-175.17,133.08-282.22l-.15-3.3,3.15,.98c5.33,1.65,130.5,43.64,177.73,338.43,85.87-80.05,106.38-226.73,48.5-350.78-60.06-128.7-187.62-192.41-341.21-170.42-5.33,.14-123.19,3.79-246.59,75.45-112.42,65.28-251.43,202.51-275.73,485.52,1.23,1.02,2.44,2.09,3.61,3.17,10.47,9.57,18.28,20.76,23.22,33.3Z"/>
          </g>
          <g class="cls-14">
            <path class="cls-2" d="M1515.37,1570.18c95.64-78.02,305.35-140.62,459.45-92.11,39.87,12.53,77.69,37.17,110.1,69.89-14.47,52.58,17.83,115.61,75.81,113.65,40.08,94.76,40.4,208.15-32.23,300.42,.41,2.49,.77,4.98,1.18,7.47,177.79-159.41,73.81-580.4-291.42-528.11,0,0-.05,0-.1,0-4.25,.1-176.25,5.05-322.8,128.79Z"/>
          </g>
          <g>
            <path d="M1328.1,2805.84c3.29-.53,6.58-1.06,9.86-1.64,0,0,468.35,155.34,481.11-323.88-197.25,64.99-403.94-12.65-473-243.21-74.13,92.05-180.38-2.3-174.74-160.5,3.22-60.6,34.46-88.18,69.66-92.79,6.82-122.37,31.74-218.02,67.74-292.63,.05-.1,.1-.15,.14-.25,156.42-323.41,522.05-251,529.29-249.53,.05,0,.1,0,.1,0-99.71-156.53-604.68-179.07-749.84,208.4h-.05c-46.63,124.59-56.1,291.65-2.89,510.29,30.46,104.4,19.32,213.42-19.86,325.63-59.61,170.63,83.7,346.61,262.48,320.13Z"/>
            <path class="cls-13" d="M1499.17,2830.25c-84.44,0-154.34-21.44-161.37-23.67-3.11,.54-6.22,1.05-9.34,1.55h-.03c-84.15,12.45-167.12-19.66-221.93-85.95-55.44-67.06-71.55-155.75-43.08-237.24,41.94-120.12,48.43-226.18,19.82-324.21-49.31-202.63-48.31-374.78,2.95-511.75l.62-1.51c95-251.34,323.46-301.39,417.42-311.23,146.54-15.36,287.85,28.34,335.98,103.91l2.27,3.56-4.79-.05c-3.88-.79-96.37-19.11-207.79,2.94-101.05,20-238.4,78.8-318.95,245.33-38.6,79.96-61.31,178.12-67.65,292l-.11,1.92-1.91,.25c-40.21,5.26-64.87,38.29-67.65,90.61-3.65,102.57,40,173.25,85.02,190.03,30.03,11.17,60.43,.15,85.6-31.1l2.76-3.43,1.26,4.22c31.04,103.63,91.77,181.53,175.62,225.26,85.95,44.82,190.51,50.65,294.43,16.41l3.13-1.03-.09,3.3c-3.72,139.72-46.55,239.31-127.31,295.99-59.44,41.71-131.3,53.88-194.91,53.88Zm-161.03-28.43l.56,.18c2.11,.71,212.73,68.85,352.74-29.44,78.85-55.35,120.97-152.57,125.22-289.02-104.08,33.5-208.69,27.23-294.89-17.73-83.87-43.74-144.89-121.11-176.66-223.92-25.98,30.37-57.1,40.75-88.06,29.2-55.19-20.57-91.39-100.58-88.04-194.58,4.01-75.46,48.68-91.43,69.78-94.73,6.52-113.69,29.35-211.79,67.85-291.61,81.52-168.51,220.29-227.91,322.37-248.12,98.59-19.51,182.58-7.64,204.29-3.91-49.92-71.38-186.64-112.14-328.58-97.29-93.28,9.77-320.38,59.52-414.12,309.75l-.61,1.5c-50.38,135.85-51.14,306.55-2.25,507.43,28.85,98.9,22.35,205.87-19.92,326.94-27.93,79.95-12.12,166.95,42.28,232.75,53.75,65.01,135.13,96.54,217.65,84.32,3.28-.52,6.55-1.05,9.83-1.64l.58-.1Z"/>
          </g>
          <g class="cls-14">
            <path class="cls-2" d="M1803.85,1431.55c-158.2-111.84-575.63-93.21-705.42,253.25h-.05c-45.11,120.53-55.44,280.8-7.9,489.06-1.53-6.27-3.18-12.53-5-18.78-53.21-218.65-43.74-385.7,2.89-510.29h.05c145.15-387.46,650.12-364.93,749.84-208.4,0,0-.05,0-.1,0-1.28-.26-13.79-2.73-34.31-4.85Z"/>
            <path class="cls-2" d="M1091.13,2176.67c1.41,6.1,2.84,12.23,4.35,18.42,30.46,104.4,19.32,213.42-19.86,325.63-13.9,39.77-16.76,79.84-10.72,117.56-16.65-48.62-18.22-103.36,.72-157.57,36.49-104.5,48.61-206.23,25.51-304.04Z"/>
          </g>
          <path class="cls-13" d="M1432.1,2067.35c-32.69,0-64.29-3.1-93.91-9.56-4.96-1.08-9.04-4.6-10.84-9.36-4.44-11.77-12.38-22.52-22.94-31.09-3.31-2.69-5.32-6.65-5.53-10.9-.03-.67-.02-1.39,.03-2.06,24.64-291.25,168.25-432.77,284.39-500.21,123.24-71.57,241.76-77.34,253.68-77.74,161.18-22.77,295.16,44.61,358.51,180.37,61.74,132.3,38.27,289.55-55.79,373.89-4.09,3.67-9.86,4.8-15.05,2.96-5.18-1.85-8.94-6.38-9.79-11.81-33.61-214.93-110.38-292.43-146.75-317.76-2.87,102.36-50.71,195.31-139.45,270.18-105.84,89.3-260.47,143.11-396.56,143.11Zm-80.03-37.33c141.7,27.56,336.68-26.99,457.24-128.71,61.94-52.26,134.53-141.86,128.59-271.95-.22-4.88,1.95-9.57,5.81-12.55,3.87-2.99,8.95-3.9,13.61-2.46,5.48,1.7,130.67,43.61,182.21,323.61,67.49-79.07,80.33-207.96,28.77-318.48-27.64-59.24-114.94-193.72-327.92-163.23-.67,.1-1.34,.14-2.01,.15-9.69,.3-122.03,5.2-240.01,73.71-158.17,91.85-248.62,249.71-268.9,469.31,9.49,8.94,17.16,19.32,22.6,30.6Z"/>
          <path class="cls-13" d="M1509.6,2846.7c-84.01,0-155.41-21.41-172.82-27.08-2.1,.35-4.21,.69-6.31,1.03-.06,0-.12,.01-.18,.02-88.6,13.12-175.91-20.68-233.56-90.41-58.3-70.51-75.22-163.78-45.28-249.5,41.04-117.54,47.46-221.06,19.62-316.48-.06-.22-.12-.43-.18-.65-52.49-215.65-48.54-397.3,11.76-539.92,50.09-118.48,139.38-207.88,258.21-258.54,206.69-88.11,443.9-35.7,510.05,68.16,2.94,4.62,3.13,10.47,.5,15.28-2.58,4.71-7.48,7.67-12.83,7.78-1.14,.05-2.31-.06-3.44-.3-2.19-.45-221.29-43.72-387.91,84.52-115.43,88.84-179.78,238.24-191.25,444.04-.4,7.21-5.87,13.11-13.03,14.04-34.06,4.46-54.17,32.41-56.63,78.71-3.43,96.35,36.03,162.28,76.79,177.47,31.41,11.7,56.1-8.32,71.29-27.17,3.5-4.34,9.13-6.39,14.57-5.31,5.47,1.07,9.89,5.08,11.49,10.41,30.8,102.83,91.68,180.45,176.07,224.46,83.95,43.78,184.06,50.14,281.92,17.9,4.63-1.53,9.73-.71,13.65,2.21,3.92,2.91,6.17,7.55,6.04,12.44-3.8,142.89-48.18,244.66-131.9,302.5-60.54,41.83-132.29,54.39-196.63,54.39Zm-171.64-57.5c1.67,0,3.34,.28,4.93,.83,2.09,.72,210.63,71.43,346.39-22.48,71.32-49.34,110.96-135.96,117.98-257.67-99.03,27.49-199.34,18.45-284.62-26.03-85.01-44.34-147.94-119.58-183.11-218.52-26.37,22.29-57.05,28.78-86.91,17.64-60.23-22.45-99.82-107.53-96.28-206.91,2.95-55.51,28.95-93.63,70.39-104.7,13.76-208.95,81.76-361.85,202.19-454.54,134.84-103.78,297.39-103.01,371.8-95.78-82.29-72.09-278.55-100.52-448.08-28.27-148.34,63.23-378.39,246.46-252.65,763.44,29.54,101.52,22.93,210.93-20.2,334.44-26.45,75.72-11.47,158.14,40.08,220.49,50.89,61.54,127.88,91.37,205.95,79.87,3.18-.51,6.36-1.03,9.55-1.59,.86-.15,1.73-.22,2.6-.22Zm-9.86,16.64h0Z"/>
          <g class="cls-14">
            <path class="cls-2" d="M1330.5,2029.64c10.08,9.26,5.96,.45,10.88,13.49,226.05,49.3,625.48-108.02,611.5-414.46-16.12,56.72-42.91,111.05-77.61,160.66-52.09-13.03-103.2,42.89-79.13,92.42-127.66,122.82-305.95,191.85-465.64,147.88Z"/>
          </g>
          <g>
            <path class="cls-1" d="M1241,1983.81c25.13-3.31,52.35,5.17,72.86,21.83,46.58-550.53,517.25-564.07,524.3-564.24-8.9-1.83-560.75-111.06-597.17,542.41Z"/>
            <path class="cls-13" d="M1315.8,2010.2l-3.4-2.76c-20.37-16.55-46.95-24.52-71.1-21.33l-2.77,.37,.16-2.79c11.76-211.06,78.37-364.75,197.97-456.8,172.85-133.03,392.7-89.67,401.98-87.75l19.87,4.1-20.29,.49c-4.96,.12-122.82,3.77-246.22,75.43-112.58,65.37-251.82,202.88-275.83,486.7l-.37,4.37Zm-63.88-29.42c20.8,0,42.35,7.27,60,20.42,25.2-282.95,164.78-420.47,277.75-486.07,96.11-55.81,188.99-70.71,228.59-74.65-58.35-7.99-235.01-20.57-378.77,90.07-117.97,90.79-183.91,242.41-196.02,450.64,2.79-.27,5.62-.41,8.45-.41Z"/>
          </g>
          <g class="cls-14">
            <path class="cls-2" d="M1241,1983.81c25.13-3.31,52.35,5.17,72.86,21.83,46.58-550.53,517.25-564.07,524.3-564.24-2.51-.54-49.01-9.76-115.09-7.59-141.57,34.52-396.86,151.9-430.51,549.85-14.39-11.7-32.66-12.16-50.68-14.52-.52,7.22-.47,7.26-.89,14.68Z"/>
          </g>
          <path class="cls-13" d="M1313.86,2020.64c-3.39,0-6.74-1.14-9.46-3.35-17.71-14.38-40.68-21.36-61.44-18.6-4.44,.6-8.89-.83-12.16-3.87-3.28-3.04-5.03-7.38-4.78-11.84,11.98-214.91,80.24-371.75,202.9-466.15,177.41-136.54,402.76-92.09,412.27-90.12,7.47,1.54,12.6,8.44,11.91,16.03-.68,7.6-6.95,13.47-14.58,13.66-4.82,.12-119.54,3.67-240.16,73.72-159.96,92.89-250.65,253.31-269.56,476.8-.47,5.54-3.96,10.37-9.08,12.54-1.89,.81-3.89,1.2-5.87,1.2Zm-56.85-52.4c15.05,.75,30.27,4.78,44.29,11.67,30.39-274.78,169.17-410.22,282-475.75,44.33-25.74,88.05-42.97,126.42-54.5-76.87,4.32-176.64,24.86-262.5,90.94-112.34,86.46-176.29,230.29-190.21,427.63Z"/>
          <g class="cls-10">
            <path class="cls-13" d="M1341.39,2043.13l56.19,6.63-.8,4.27,178.77-20.72c-84.84,5.78-127.94-32.11-140.75-101.66-5.42-29.41-3.96-59.62,2.23-88.87,37.53-177.47,126.44-333.59,291.6-368.15-293.71,55.89-365.2,284.94-418.69,528l31.45,40.5Z"/>
          </g>
          <g class="cls-10">
            <path d="M1328.1,2805.84c3.29-.53,6.58-1.06,9.86-1.64,0,0,473.18,164.98,485.93-314.24-197.25,64.99-408.76-22.29-477.82-252.86-74.13,92.05-180.38-2.3-174.74-160.5,3.22-60.6,34.46-88.18,69.66-92.79,6.82-122.37,31.74-218.02,67.74-292.63-98.63,172.63-259.22,177.71-220.31-41.39h-.05c-46.63,124.59-56.1,291.65-2.89,510.29,30.46,104.4,19.32,213.42-19.86,325.63-59.61,170.63,83.7,346.61,262.48,320.13Z"/>
          </g>
          <g>
            <path class="cls-16" d="M1315.51,2264.02c10.5-5.95,20.8-14.8,30.55-26.9,4.2,206.58,142.87,324.59,302.89,356.3,225.28,44.76,492.77-81.51,486.87-372.3l-6.15-251.63c-47.01-300.59-176.82-340.8-176.82-340.8,.35,7.15,.45,14.15,.3,21.1v.05c-4.85,292.49-391,441.46-611.78,393.3-.1-.3-.25-.65-.4-.95-5.6-14.5-15.25-26.85-27.1-36.51l-.05-.05c-20.5-16.65-47.71-25.15-72.86-21.85-35.2,4.65-66.41,32.2-69.66,92.81-4.85,137.42,74.66,226.68,144.22,187.43Z"/>
            <path class="cls-13" d="M1738.6,2604.48c-30.06,0-60.29-2.88-90.09-8.8-143.05-28.34-297.38-135.8-304.59-352.41-8.52,9.69-17.67,17.33-27.26,22.76h0c-23.65,13.35-49.88,12.68-73.83-1.88-47.86-29.09-76.85-102.74-73.85-187.65,4.17-77.78,51.51-92.37,71.67-95.03,25.38-3.34,53.29,5.02,74.62,22.35,12.71,10.36,22.29,23.24,27.77,37.29,141.61,30.39,335.95-20.2,462.65-120.52,65.02-51.48,142.97-140.25,145.14-270.81,.15-7,.05-13.85-.3-21l-.16-3.31,3.16,.98c1.31,.41,131.74,44.09,178.43,342.65l6.18,251.93c2.41,118.93-40.56,218.86-124.28,289.02-72.76,60.97-172.93,94.41-275.27,94.41Zm-390.34-373.78l.13,6.36c4.43,217.96,158.41,325.82,301.03,354.07,129.89,25.81,268.4-6.61,361.47-84.62,82.61-69.22,125.01-167.9,122.62-285.36l-6.15-251.63c-42.08-268.94-151.97-328.63-172.04-337.39,.22,5.99,.27,11.8,.15,17.69-1.74,104.81-52.53,199.69-146.89,274.4-128.05,101.39-324.76,152.33-467.7,121.17l-1.29-.28-.42-1.25c-.07-.2-.17-.43-.27-.63-5.27-13.61-14.4-25.9-26.5-35.76-20.41-16.58-46.99-24.58-71.14-21.4-40.19,5.3-64.84,38.34-67.65,90.63-3.34,94.63,33.57,160.34,71.63,183.48,22.78,13.85,46.69,14.47,69.14,1.81h0c10.58-6,20.64-14.86,29.89-26.34l3.99-4.96Z"/>
          </g>
          <g class="cls-14">
            <path class="cls-2" d="M1721.27,2601.86c206.33,7.8,419.86-120.62,414.56-380.75l-6.15-251.63c-47.01-300.59-176.82-340.8-176.82-340.8,.35,7.6,8.58,9.45,8.43,16.85,42.06,34.8,101.09,125.42,132.14,323.94l6.15,251.63c4.95,244.88-183.98,373.1-378.3,380.75Z"/>
          </g>
          <path class="cls-13" d="M1738.73,2617.22c-103.19,0-199.79-32.19-273-91.17-77.65-62.56-123.18-150.41-132.84-255.53-24.82,18.05-52.92,22.65-80.29,12.45-60.23-22.45-99.83-107.54-96.28-206.91,3.23-60.83,34.15-100.78,82.71-107.13,28.75-3.8,60.26,5.57,84.27,25.06,.29,.23,.57,.48,.84,.73,11.97,9.91,21.49,21.98,27.92,35.29,141.7,27.58,336.68-26.99,457.24-128.71,61.94-52.26,134.52-141.86,128.59-271.95-.22-4.88,1.95-9.57,5.81-12.55,3.86-2.99,8.94-3.9,13.61-2.46,5.66,1.76,139.28,46.49,187.18,352.84,.1,.65,.16,1.3,.18,1.95l6.15,251.61c2.43,119.87-40.04,221.48-122.83,293.92-73.04,63.91-172.18,100.3-279.14,102.47-3.37,.07-6.75,.1-10.1,.1Zm-392.67-395.14c1.62,0,3.25,.26,4.84,.81,5.97,2.04,10.02,7.59,10.15,13.9,4.99,246,204.27,353.89,387.17,350.34,182.95-3.72,377.58-119.74,372.58-365.72l-6.12-250.56c-33.69-214.18-110.29-291.5-146.6-316.8-2.87,102.36-50.71,195.31-139.45,270.18-131.26,110.74-337.53,166.91-490.47,133.55-4.96-1.08-9.04-4.6-10.84-9.36-4.45-11.77-12.38-22.52-22.95-31.1-.25-.21-.5-.42-.73-.64-17.62-13.99-40.25-20.74-60.72-18.02-34.07,4.46-54.18,32.42-56.65,78.72-3.43,96.35,36.03,162.28,76.79,177.47,31.39,11.71,56.1-8.32,71.29-27.17,2.9-3.6,7.23-5.6,11.69-5.6Z"/>
          <g>
            <path class="cls-13" d="M1937.86,2353.64c-73.02,14.29-146.64,3.58-220.88-32.12,18.17,163.79,156.12,145.42,220.88,32.12Z"/>
            <g>
              <path class="cls-9" d="M1753.88,2415.84c14.4-16.48,78.39-7.72,83.76,22.53-32.28,7.24-60.75,1.62-83.76-22.53Z"/>
              <path class="cls-13" d="M1812.49,2443.67c-23.69,0-43.56-8.68-60.28-26.24l-1.46-1.53,1.39-1.59c9.31-10.66,34.23-10.87,52.95-5.67,19.8,5.51,32.5,16.2,34.83,29.32l.39,2.18-2.16,.48c-9.02,2.03-17.56,3.04-25.66,3.04Zm-55.31-27.78c20.46,20.48,45.92,27.25,77.68,20.71-3.01-10.32-14.15-18.81-31-23.49-18.44-5.13-38.53-3.8-46.68,2.78Z"/>
            </g>
            <g>
              <path class="cls-2" d="M1740.41,2331.94c36.32,80.65,144.47,71.34,172.61,25.57,0,0-96.65,19.43-172.61-25.57Z"/>
              <path class="cls-13" d="M1836.84,2394.66c-2.62,0-5.27-.08-7.92-.25-41.17-2.64-74.2-25.06-90.62-61.51l-3.01-6.68,6.3,3.74c74.29,44.01,170.01,25.48,170.97,25.29l5.22-1.05-2.79,4.54c-13.52,22-44.29,35.93-78.16,35.93Zm-91.04-57.01c16.57,30.9,46.58,49.77,83.41,52.13,32.34,2.08,63.72-9.73,78.78-29.08-20.96,3.14-97.91,11.46-162.19-23.05Z"/>
            </g>
            <path class="cls-13" d="M1813.67,2454.09c-6.72,0-13.39-.66-19.95-2.02-48.67-10.09-81.17-57.17-89.16-129.18-.5-4.52,1.49-8.95,5.2-11.58,3.71-2.63,8.55-3.04,12.65-1.06,71.41,34.34,143.1,44.82,213.06,31.11,4.8-.94,9.71,1.01,12.56,4.98,2.85,3.97,3.12,9.25,.7,13.5-33.45,58.53-85.71,94.25-135.05,94.25Zm-80.82-111.74c9.83,48.4,32.82,78.37,65.95,85.24,37.12,7.69,81.09-15.35,113.13-57.37-59.23,6.48-119.27-2.86-179.08-27.87Z"/>
          </g>
          <path class="cls-13" d="M1962.67,2038.98c6.8-11.92,17.06-20.67,28.8-27.32,11.78-6.51,25.53-10.43,39.71-10.57,3.55,.18,7.09-.2,10.62,.55,3.52,.62,7.04,1.15,10.5,1.91,6.73,2.35,13.53,4.48,19.32,8.5,1.5,.88,2.94,1.86,4.39,2.79l2.15,1.41,1.92,1.73c2.56,2.3,5.01,4.69,7.35,7.08,2.45,2.28,4.21,5.27,6.04,8.06,1.8,2.83,3.5,5.66,4.9,8.66,.62,1.33,.05,2.92-1.28,3.54-.59,.28-1.23,.32-1.82,.16l-.37-.1c-6.49-1.74-11.7-4.48-17.27-6.18-2.78-.84-5.46-1.7-8.03-2.63-2.5-1.11-5.33-1.27-7.85-2.02-5.03-1.64-10.24-1.86-15.13-2.93-5.09-.13-9.99-.91-15.07-.54-10.06,.18-20.39,1.43-31.23,3.62-10.83,2.18-22.12,5.14-34.46,8.12l-.27,.07c-1.43,.34-2.87-.53-3.21-1.96-.17-.68-.05-1.37,.27-1.94Z"/>
          <ellipse class="cls-13" cx="1747.42" cy="2167.73" rx="54.87" ry="74.15" transform="translate(-27.92 22.8) rotate(-.74)"/>
          <ellipse class="cls-13" cx="2023.91" cy="2145.74" rx="54.87" ry="74.15" transform="translate(-127.04 127.37) rotate(-3.5)"/>
          <g>
            <ellipse class="cls-2" cx="2035.79" cy="2122.65" rx="19.24" ry="22.74" transform="translate(-125.59 128.03) rotate(-3.49)"/>
            <path class="cls-13" d="M2036.16,2147.88c-5.45,0-10.66-2.32-14.77-6.63-4.3-4.49-6.89-10.63-7.29-17.29h0c-.85-13.89,8.2-25.79,20.16-26.52,12.06-.77,22.39,9.99,23.24,23.87,.85,13.89-8.2,25.79-20.16,26.52-.4,.02-.79,.04-1.18,.04Zm-.75-45.47c-.28,0-.56,0-.85,.02-9.21,.57-16.16,10.09-15.48,21.23h0c.33,5.47,2.44,10.49,5.92,14.13,3.37,3.53,7.64,5.28,12.03,5.05,9.21-.57,16.16-10.09,15.48-21.23-.66-10.79-8.24-19.21-17.1-19.21Z"/>
          </g>
          <path class="cls-13" d="M1804.58,2051.34c-12.34-2.53-23.17-5.11-33.39-6.46-10.2-1.43-19.53-1.78-28.68-.64-4.58,.57-9.15,1.57-13.71,3.12-4.59,1.45-9.23,3.35-13.9,5.71-9.41,4.63-18.92,10.84-29.55,17.51h-.02c-1.26,.8-2.91,.42-3.7-.83-.41-.65-.5-1.42-.32-2.1,3.26-12.49,9.99-23.91,19.59-33.45,9.47-9.57,22.56-16.84,36.84-19.36,14.25-2.71,29.14-.5,41.43,5.44,12.26,6.07,22.66,14.9,28.71,27.29,.65,1.34,.1,2.96-1.24,3.61-.56,.27-1.16,.34-1.73,.22l-.32-.07Z"/>
          <g>
            <ellipse class="cls-2" cx="1759.83" cy="2149.2" rx="19.24" ry="22.74" transform="translate(-127.73 111.26) rotate(-3.49)"/>
            <path class="cls-13" d="M1760.19,2174.44c-5.45,0-10.66-2.32-14.77-6.63-4.3-4.49-6.89-10.63-7.29-17.29h0c-.85-13.89,8.2-25.79,20.16-26.52,12.04-.71,22.39,9.98,23.24,23.87s-8.2,25.79-20.16,26.52c-.4,.02-.79,.04-1.18,.04Zm-17.07-24.21c.33,5.47,2.44,10.49,5.92,14.13,3.37,3.53,7.64,5.25,12.03,5.05,9.22-.57,16.16-10.09,15.48-21.23-.68-11.13-8.69-19.66-17.95-19.18-9.21,.57-16.15,10.09-15.48,21.23h0Z"/>
          </g>
          <g class="cls-10">
            <path class="cls-13" d="M1180.33,2085.85s18.43,104.38,96.19,113.46c33.97,3.97,63.52-22.43,65.54-56.57,1.63-27.47-1.46-58.22-11.55-93.86l10.45-6.7c.15,.3,.3,.65,.4,.95,220.78,48.16,606.93-100.81,611.78-393.3,23.28,233.76-86.35,383.64-384.07,435.98-85.2,14.98-139.55,100.05-116.83,183.52,39.52,145.17,120.35,264.17,295.17,330.78,0,0-44.21-3-98.46-6.7-160.02-31.7-298.69-149.72-302.89-356.3-9.75,12.1-20.05,20.95-30.55,26.9-.56-1.28-1.06-2.44-1.54-3.55-1.44,1.78-2.01,2.91-1.13,2.91,5,0-45.01,11.63-45.01,11.63,0,0-49.64-29.77-47.32-33.2,2.31-3.43-72.7-43.44-40.19-155.95Z"/>
          </g>
        </g>
      </g>
      <g class="cls-5">
        <path class="cls-2" d="M2654.58,2043.26c-1.28,21.99-29.23,30.76-42.44,13.14-13.04-17.39-23.74-44.09-22.74-84.65,2.46-99.6,83-61.71,31.35-208.03-30.56-86.58,45.71-128.72,45.71-128.72,0,0-9,69.8,11.15,112.04,29.5,61.86,75.01,117.58,26.37,165.07-36.92,36.04-47.12,92.16-49.39,131.14Z"/>
      </g>
    </g>
  </g>
  <text class="cls-12" transform="translate(1680.73 2139.67) rotate(-44.74) scale(3.67 1)"><tspan x="0" y="0" xml:space="preserve">|  </tspan></text>
  <text class="cls-12" transform="translate(1696.98 2123.18) rotate(-44.74) scale(3.67 1)"><tspan x="0" y="0" xml:space="preserve">|  </tspan></text>
  <text class="cls-12" transform="translate(1782.5 2112.21) rotate(38.98) scale(3.67 1)"><tspan x="0" y="0" xml:space="preserve">|  </tspan></text>
  <text class="cls-11" transform="translate(1771.66 2094.72) rotate(38.98) scale(3.55 1)"><tspan x="0" y="0" xml:space="preserve">|  </tspan></text>
  <text class="cls-12" transform="translate(1717.42 2094.74) rotate(-.74) scale(3.67 1)"><tspan x="0" y="0" xml:space="preserve">|  </tspan></text>
  <text class="cls-12" transform="translate(1740.67 2094.25) rotate(-.74) scale(3.67 1)"><tspan x="0" y="0" xml:space="preserve">|  </tspan></text>
  <text class="cls-12" transform="translate(1956.13 2123.55) rotate(-48.24) scale(3.67 1)"><tspan x="0" y="0" xml:space="preserve">|  </tspan></text>
  <text class="cls-12" transform="translate(1971.34 2106.09) rotate(-48.24) scale(3.67 1)"><tspan x="0" y="0" xml:space="preserve">|  </tspan></text>
  <text class="cls-12" transform="translate(2055.95 2089.93) rotate(35.48) scale(3.67 1)"><tspan x="0" y="0" xml:space="preserve">|  </tspan></text>
  <text class="cls-11" transform="translate(2044.03 2073.22) rotate(35.48) scale(3.55 1)"><tspan x="0" y="0" xml:space="preserve">|  </tspan></text>
  <text class="cls-12" transform="translate(1989.92 2076.5) rotate(-4.24) scale(3.67 1)"><tspan x="0" y="0" xml:space="preserve">|  </tspan></text>
  <text class="cls-12" transform="translate(2013.09 2074.59) rotate(-4.24) scale(3.67 1)"><tspan x="0" y="0" xml:space="preserve">|  </tspan></text>
  <rect class="cls-3" x="2522.53" y="2267.76" width="18.06" height="66" rx="3.84" ry="3.84" transform="translate(1489.55 -957.53) rotate(30)"/>
</svg>